<?xml version="1.0" encoding="UTF-8" standalone="no"?><!DOCTYPE svg PUBLIC "-//W3C//DTD SVG 1.1//EN" "http://www.w3.org/Graphics/SVG/1.1/DTD/svg11.dtd"><!-- Generated by graphviz version 2.40.1 (20161225.0304)
 --><!-- Title: G Pages: 1 --><svg xmlns="http://www.w3.org/2000/svg" xmlns:xlink="http://www.w3.org/1999/xlink" width="660pt" height="404pt" viewBox="0.00 0.00 660.09 404.00">
<g id="graph0" class="graph" transform="scale(1 1) rotate(0) translate(4 400)">
<title>G</title>
<polygon fill="#ffffff" stroke="transparent" points="-4,4 -4,-400 656.0878,-400 656.0878,4 -4,4"/>
<!-- Feature_Detection -->
<g id="node1" class="node">
<title>Feature_Detection</title>
<ellipse fill="none" stroke="#000000" cx="307.315" cy="-378" rx="82.2198" ry="18"/>
<text text-anchor="middle" x="307.315" y="-373.8" font-family="Times,serif" font-size="14.00" fill="#000000">Feature_Detection</text>
</g>
<!-- Feature_Description -->
<g id="node2" class="node">
<title>Feature_Description</title>
<ellipse fill="none" stroke="#000000" cx="307.315" cy="-306" rx="89.7441" ry="18"/>
<text text-anchor="middle" x="307.315" y="-301.8" font-family="Times,serif" font-size="14.00" fill="#000000">Feature_Description</text>
</g>
<!-- Feature_Detection&#45;&gt;Feature_Description -->
<g id="edge1" class="edge">
<title>Feature_Detection-&gt;Feature_Description</title>
<path fill="none" stroke="#000000" d="M307.315,-359.8314C307.315,-352.131 307.315,-342.9743 307.315,-334.4166"/>
<polygon fill="#000000" stroke="#000000" points="310.8151,-334.4132 307.315,-324.4133 303.8151,-334.4133 310.8151,-334.4132"/>
</g>
<!-- Feature_Matching -->
<g id="node3" class="node">
<title>Feature_Matching</title>
<ellipse fill="none" stroke="#000000" cx="307.315" cy="-234" rx="81.6616" ry="18"/>
<text text-anchor="middle" x="307.315" y="-229.8" font-family="Times,serif" font-size="14.00" fill="#000000">Feature_Matching</text>
</g>
<!-- Feature_Description&#45;&gt;Feature_Matching -->
<g id="edge2" class="edge">
<title>Feature_Description-&gt;Feature_Matching</title>
<path fill="none" stroke="#000000" d="M307.315,-287.8314C307.315,-280.131 307.315,-270.9743 307.315,-262.4166"/>
<polygon fill="#000000" stroke="#000000" points="310.8151,-262.4132 307.315,-252.4133 303.8151,-262.4133 310.8151,-262.4132"/>
</g>
<!-- Matches_Filtering_by_RANSAC -->
<g id="node4" class="node">
<title>Matches_Filtering_by_RANSAC</title>
<ellipse fill="none" stroke="#000000" cx="140.315" cy="-162" rx="140.1302" ry="18"/>
<text text-anchor="middle" x="140.315" y="-157.8" font-family="Times,serif" font-size="14.00" fill="#000000">Matches_Filtering_by_RANSAC</text>
</g>
<!-- Feature_Matching&#45;&gt;Matches_Filtering_by_RANSAC -->
<g id="edge3" class="edge">
<title>Feature_Matching-&gt;Matches_Filtering_by_RANSAC</title>
<path fill="none" stroke="#000000" d="M269.8369,-217.8418C246.198,-207.6502 215.4027,-194.3732 189.7714,-183.3225"/>
<polygon fill="#000000" stroke="#000000" points="191.1533,-180.1069 180.5847,-179.3618 188.3819,-186.535 191.1533,-180.1069"/>
</g>
<!-- Matches_Filtering_by_Euclidian_Distance -->
<g id="node5" class="node">
<title>Matches_Filtering_by_Euclidian_Distance</title>
<ellipse fill="none" stroke="#000000" cx="475.315" cy="-162" rx="176.546" ry="18"/>
<text text-anchor="middle" x="475.315" y="-157.8" font-family="Times,serif" font-size="14.00" fill="#000000">Matches_Filtering_by_Euclidian_Distance</text>
</g>
<!-- Feature_Matching&#45;&gt;Matches_Filtering_by_Euclidian_Distance -->
<g id="edge4" class="edge">
<title>Feature_Matching-&gt;Matches_Filtering_by_Euclidian_Distance</title>
<path fill="none" stroke="#000000" d="M345.0175,-217.8418C368.6256,-207.724 399.329,-194.5654 425.0011,-183.5631"/>
<polygon fill="#000000" stroke="#000000" points="426.3964,-186.773 434.2092,-179.6168 423.639,-180.339 426.3964,-186.773"/>
</g>
<!-- Coordinates_position_calculation -->
<g id="node6" class="node">
<title>Coordinates_position_calculation</title>
<ellipse fill="none" stroke="#000000" cx="307.315" cy="-90" rx="140.6924" ry="18"/>
<text text-anchor="middle" x="307.315" y="-85.8" font-family="Times,serif" font-size="14.00" fill="#000000">Coordinates_position_calculation</text>
</g>
<!-- Matches_Filtering_by_RANSAC&#45;&gt;Coordinates_position_calculation -->
<g id="edge5" class="edge">
<title>Matches_Filtering_by_RANSAC-&gt;Coordinates_position_calculation</title>
<path fill="none" stroke="#000000" d="M180.741,-144.5708C203.9207,-134.5772 233.1987,-121.9543 257.7564,-111.3666"/>
<polygon fill="#000000" stroke="#000000" points="259.464,-114.4419 267.2612,-107.2687 256.6926,-108.0138 259.464,-114.4419"/>
</g>
<!-- Matches_Filtering_by_Euclidian_Distance&#45;&gt;Coordinates_position_calculation -->
<g id="edge6" class="edge">
<title>Matches_Filtering_by_Euclidian_Distance-&gt;Coordinates_position_calculation</title>
<path fill="none" stroke="#000000" d="M434.2176,-144.3868C410.9774,-134.4267 381.748,-121.8999 357.2009,-111.3797"/>
<polygon fill="#000000" stroke="#000000" points="358.2681,-108.0292 347.6979,-107.307 355.5107,-114.4632 358.2681,-108.0292"/>
</g>
<!-- Image_reconstruction -->
<g id="node7" class="node">
<title>Image_reconstruction</title>
<ellipse fill="none" stroke="#000000" cx="307.315" cy="-18" rx="95.4656" ry="18"/>
<text text-anchor="middle" x="307.315" y="-13.8" font-family="Times,serif" font-size="14.00" fill="#000000">Image_reconstruction</text>
</g>
<!-- Coordinates_position_calculation&#45;&gt;Image_reconstruction -->
<g id="edge7" class="edge">
<title>Coordinates_position_calculation-&gt;Image_reconstruction</title>
<path fill="none" stroke="#000000" d="M307.315,-71.8314C307.315,-64.131 307.315,-54.9743 307.315,-46.4166"/>
<polygon fill="#000000" stroke="#000000" points="310.8151,-46.4132 307.315,-36.4133 303.8151,-46.4133 310.8151,-46.4132"/>
</g>
</g>
</svg>